<svg xmlns="http://www.w3.org/2000/svg" viewBox="0 0 53.7 36.83"><defs><style>.cls-1{fill:#fff;}.cls-2{fill:#bcd0ce;}.cls-3{fill:#486a76;}.cls-4{fill:#1e1e1c;}</style></defs><title>Element 40</title><g id="Ebene_2" data-name="Ebene 2"><g id="Ebene_1-2" data-name="Ebene 1"><path class="cls-1" d="M50.09,17.94H45.35V16.26l1-.17-.61-1.92H41.19l-.61,1.92,1,.17v1.68H36.81V16.26l1-.15L42,4h2.86l4.2,12.14,1,.15ZM38,.54,14.85,8l7.79,24.23,24.52-8.38C53,22,54.88,16.58,53,10.7l-1-3A11.13,11.13,0,0,0,38,.54"/><polygon class="cls-1" points="43.09 6.83 41.52 11.74 44.72 11.74 43.15 6.83 43.09 6.83"/><path class="cls-2" d="M18.92,36.7.65,27.46a1.17,1.17,0,0,1-.52-1.58L9.44,7.46A1.19,1.19,0,0,1,11,6.94L29.3,16.18a1.19,1.19,0,0,1,.52,1.59L20.5,36.18a1.17,1.17,0,0,1-1.58.52"/><path class="cls-3" d="M21.33,25a7.12,7.12,0,1,1-3.14-9.57A7.13,7.13,0,0,1,21.33,25"/><path class="cls-4" d="M13.38,11.49a2.36,2.36,0,1,1-1-3.18,2.36,2.36,0,0,1,1,3.18"/><path class="cls-4" d="M28.44,19.11a2.36,2.36,0,1,1-1-3.18,2.36,2.36,0,0,1,1,3.18"/><path class="cls-4" d="M5.8,26.48a2.37,2.37,0,1,1-1-3.18,2.36,2.36,0,0,1,1,3.18"/><path class="cls-4" d="M20.86,34.1a2.37,2.37,0,1,1-1.05-3.18,2.36,2.36,0,0,1,1.05,3.18"/></g></g></svg>