<svg xmlns="http://www.w3.org/2000/svg" viewBox="0 0 528.11 341.85"><defs><style>.cls-1{fill:#044854;opacity:0.2;}</style></defs><title>Element 13</title><g id="Ebene_2" data-name="Ebene 2"><g id="Ebene_1-2" data-name="Ebene 1"><path class="cls-1" d="M528.05,196.85a18.93,18.93,0,0,0-10.14-18.36c-12.22-6.29-28.6-20.26-45.06-49.94-15.72-28.36-9.24-60.33-4.45-78.71a20.4,20.4,0,0,0-10.22-23.13l-.67-.36a19.94,19.94,0,0,0-18.27-.23c-14.37,7.2-44.1,19.54-72.26,15.35-25.93-3.86-50.6-23.14-64.25-35.65a22.23,22.23,0,0,0-25.5-3.19c-6.19,3.31-8.72,10.8-8.77,17.82C268.34,37.31,263.69,69,241.37,93c-17.16,18.45-41.26,28.66-57.31,33.8-10.32,3.3-16.17,9.73-16.57,20.41s7.9,17.06,12.42,19.32c10.35,5.18,22.23,13.68,39.87,42.14,17.76,28.66,13.74,62.77,8.62,81-2.39,8.52-1.66,17.6,4.46,24,5.81,6.09,17.56,6.14,25,2.14,8.71-4.71,17.85-9.11,27.08-11.77,10.33-3,20-4.08,26-3.69,3.25.21,6.41-.45,7.88-3.36,1.77-3.52,5.12-7.43,11.15-6.53,5.86.87,8.07,5.3,8.88,9.07a7.59,7.59,0,0,0,5.6,5.82c4.1,1,11.28,3.72,23.61,10.66,10.13,5.71,17.12,13,23.1,18.29,10.34,9.19,19.34,8.55,25.67,5.73a16.08,16.08,0,0,0,9.46-14.54c.15-14.08,3.16-46.43,25.32-74,18.3-22.75,42.84-31.48,58.48-36.23C519.42,212.4,527.27,206.61,528.05,196.85ZM185.68,157.34A9.94,9.94,0,1,1,197,149,9.95,9.95,0,0,1,185.68,157.34ZM289.56,10.05a9.94,9.94,0,1,1-11.3,8.37A9.95,9.95,0,0,1,289.56,10.05ZM245.78,309.1a9.94,9.94,0,1,1,11.3-8.37A9.94,9.94,0,0,1,245.78,309.1ZM450.4,34.53a9.94,9.94,0,1,1-11.3,8.37A9.94,9.94,0,0,1,450.4,34.53ZM406.84,331.59a9.94,9.94,0,1,1,11.3-8.37A9.94,9.94,0,0,1,406.84,331.59ZM507,205.21a9.94,9.94,0,1,1,11.3-8.37A9.95,9.95,0,0,1,507,205.21Z"/><path class="cls-1" d="M479.71,196.85a18.92,18.92,0,0,0-10.14-18.36c-12.22-6.29-28.6-20.26-45.06-49.94-15.72-28.36-9.23-60.33-4.45-78.71a20.4,20.4,0,0,0-10.22-23.13l-.67-.36a19.94,19.94,0,0,0-18.27-.23c-14.37,7.2-44.09,19.54-72.26,15.35C292.72,37.61,268,18.33,254.4,5.82a22.25,22.25,0,0,0-25.51-3.19c-6.19,3.31-8.72,10.8-8.77,17.82C220,37.31,215.35,69,193,93c-17.15,18.45-41.26,28.66-57.3,33.8-10.33,3.3-16.18,9.73-16.57,20.41s7.89,17.06,12.41,19.32c10.36,5.18,22.24,13.68,39.87,42.14,17.76,28.66,13.74,62.77,8.62,81-2.39,8.52-1.65,17.6,4.46,24,5.81,6.09,17.56,6.14,25,2.14,8.71-4.71,17.86-9.11,27.08-11.77,10.34-3,20-4.08,26-3.69,3.25.21,6.41-.45,7.87-3.36,1.77-3.52,5.12-7.43,11.15-6.53,5.86.87,8.07,5.3,8.89,9.07a7.56,7.56,0,0,0,5.59,5.82c4.11,1,11.29,3.72,23.61,10.66,10.14,5.71,17.12,13,23.11,18.29,10.33,9.19,19.33,8.55,25.66,5.73a16.08,16.08,0,0,0,9.46-14.54c.15-14.08,3.16-46.43,25.33-74,18.29-22.75,42.84-31.48,58.47-36.23C471.08,212.4,478.93,206.61,479.71,196.85ZM137.35,157.34A9.94,9.94,0,1,1,148.64,149,9.94,9.94,0,0,1,137.35,157.34ZM241.22,10.05a9.94,9.94,0,1,1-11.29,8.37A9.95,9.95,0,0,1,241.22,10.05ZM197.45,309.1a9.94,9.94,0,1,1,11.29-8.37A9.94,9.94,0,0,1,197.45,309.1ZM402.06,34.53a9.94,9.94,0,1,1-11.3,8.37A9.94,9.94,0,0,1,402.06,34.53ZM358.51,331.59a9.94,9.94,0,1,1,11.29-8.37A9.95,9.95,0,0,1,358.51,331.59ZM458.63,205.21a9.94,9.94,0,1,1,11.3-8.37A9.95,9.95,0,0,1,458.63,205.21Z"/><path class="cls-1" d="M390.9,126.61c-15.63-4.75-40.17-13.48-58.47-36.23-22.17-27.56-25.17-59.91-25.33-74a16.06,16.06,0,0,0-9.46-14.54C291.31-1,282.31-1.61,272,7.58c-6,5.33-13,12.58-23.1,18.29-12.33,6.94-19.51,9.67-23.62,10.66a7.59,7.59,0,0,0-5.59,5.82c-.81,3.77-3,8.2-8.88,9.07-6,.9-9.39-3-11.16-6.53-1.46-2.91-4.62-3.57-7.87-3.36-6,.39-15.66-.71-26-3.69-9.23-2.66-18.37-7.06-27.09-11.77-7.4-4-19.15-3.95-25,2.14-6.12,6.4-6.86,15.48-4.46,24,5.12,18.24,9.13,52.35-8.63,81-17.63,28.46-29.51,37-39.86,42.14C56.25,177.62,48,184,48.35,194.68s6.25,17.11,16.57,20.41c16,5.14,40.15,15.35,57.3,33.8,22.32,24,27,55.65,27.1,72.51.05,7,2.58,14.51,8.77,17.82a22.23,22.23,0,0,0,25.5-3.19c13.65-12.51,38.32-31.79,64.24-35.65,28.17-4.19,57.9,8.15,72.27,15.35a19.92,19.92,0,0,0,18.26-.23l.68-.36A20.4,20.4,0,0,0,349.26,292c-4.79-18.38-11.28-50.35,4.45-78.71,16.45-29.68,32.84-43.65,45.06-49.94A18.93,18.93,0,0,0,408.91,145C408.13,135.24,400.28,129.45,390.9,126.61ZM77.84,192.88a9.94,9.94,0,1,1-11.3-8.37A10,10,0,0,1,77.84,192.88Zm81.28,130.55a9.94,9.94,0,1,1,11.3,8.37A9.95,9.95,0,0,1,159.12,323.43ZM137.94,41.12a9.94,9.94,0,1,1-11.3-8.37A9.94,9.94,0,0,1,137.94,41.12ZM320,299a9.94,9.94,0,1,1,11.3,8.37A9.93,9.93,0,0,1,320,299ZM299,18.63a9.94,9.94,0,1,1-11.3-8.37A9.94,9.94,0,0,1,299,18.63ZM399.12,145a9.94,9.94,0,1,1-11.29-8.37A9.94,9.94,0,0,1,399.12,145Z"/><path class="cls-1" d="M342.57,126.61c-15.64-4.75-40.18-13.48-58.48-36.23-22.16-27.56-25.17-59.91-25.32-74a16.08,16.08,0,0,0-9.46-14.54C243-1,234-1.61,223.65,7.58c-6,5.33-13,12.58-23.11,18.29-12.33,6.94-19.5,9.67-23.61,10.66a7.56,7.56,0,0,0-5.59,5.82c-.82,3.77-3,8.2-8.89,9.07-6,.9-9.38-3-11.15-6.53-1.47-2.91-4.63-3.57-7.88-3.36-6,.39-15.66-.71-26-3.69-9.23-2.66-18.37-7.06-27.08-11.77-7.41-4-19.16-3.95-25,2.14-6.11,6.4-6.85,15.48-4.46,24,5.12,18.24,9.14,52.35-8.62,81-17.64,28.46-29.52,37-39.87,42.14C7.91,177.62-.38,184,0,194.68s6.25,17.11,16.57,20.41c16.05,5.14,40.15,15.35,57.31,33.8,22.32,24,27,55.65,27.09,72.51,0,7,2.58,14.51,8.77,17.82a22.23,22.23,0,0,0,25.5-3.19c13.65-12.51,38.32-31.79,64.25-35.65,28.16-4.19,57.89,8.15,72.26,15.35A19.94,19.94,0,0,0,290,315.5l.67-.36A20.4,20.4,0,0,0,300.92,292c-4.78-18.38-11.27-50.35,4.45-78.71,16.46-29.68,32.84-43.65,45.06-49.94A18.93,18.93,0,0,0,360.57,145C359.79,135.24,351.94,129.45,342.57,126.61ZM29.5,192.88a9.94,9.94,0,1,1-11.3-8.37A9.95,9.95,0,0,1,29.5,192.88Zm81.28,130.55a9.94,9.94,0,1,1,11.3,8.37A9.95,9.95,0,0,1,110.78,323.43ZM89.6,41.12a9.94,9.94,0,1,1-11.3-8.37A9.94,9.94,0,0,1,89.6,41.12ZM271.62,299a9.94,9.94,0,1,1,11.3,8.37A9.93,9.93,0,0,1,271.62,299Zm-21-280.32a9.94,9.94,0,1,1-11.29-8.37A9.94,9.94,0,0,1,250.66,18.63ZM350.79,145a9.94,9.94,0,1,1-11.3-8.37A9.95,9.95,0,0,1,350.79,145Z"/></g></g></svg>