<svg xmlns="http://www.w3.org/2000/svg" viewBox="0 0 48.93 48.93"><defs><style>.cls-1{fill:#fff;}</style></defs><title>Element 62</title><g id="Ebene_2" data-name="Ebene 2"><g id="Ebene_1-2" data-name="Ebene 1"><path class="cls-1" d="M-87.54-35.07a1.43,1.43,0,0,1-1.34-1L-94.47-52.6-111-58.19a1.43,1.43,0,0,1-1-1.35,1.43,1.43,0,0,1,1-1.34l16.57-5.59L-88.88-83a1.43,1.43,0,0,1,1.34-1,1.43,1.43,0,0,1,1.35,1l5.59,16.57L-64-60.88a1.43,1.43,0,0,1,1,1.34,1.43,1.43,0,0,1-1,1.35L-80.6-52.6-86.19-36A1.43,1.43,0,0,1-87.54-35.07Zm-18.61-24.47,13.25,4.48a1.41,1.41,0,0,1,.89.89l4.47,13.25,4.48-13.25a1.41,1.41,0,0,1,.89-.89l13.25-4.48L-82.17-64a1.41,1.41,0,0,1-.89-.89l-4.48-13.25L-92-64.9a1.41,1.41,0,0,1-.89.89Z" transform="translate(112 84)"/></g></g></svg>