<svg xmlns="http://www.w3.org/2000/svg" viewBox="0 0 136.75 98.37"><defs><style>.cls-1{fill:#fff;}</style></defs><title>Element 61</title><g id="Ebene_2" data-name="Ebene 2"><g id="Ebene_1-2" data-name="Ebene 1"><path class="cls-1" d="M-13.69-16.95-64.47-4.7a4.25,4.25,0,0,1-5.1-3.12l-10.37-43a4.24,4.24,0,0,1,3.12-5.1L-26-68.17a4.23,4.23,0,0,1,5.1,3.11l10.37,43A4.22,4.22,0,0,1-13.69-16.95ZM-76.15-53.17a1.38,1.38,0,0,0-1,1.67l10.37,43a1.39,1.39,0,0,0,1.68,1L-14.35-19.7a1.4,1.4,0,0,0,1-1.68l-10.37-43a1.4,1.4,0,0,0-1.68-1Z" transform="translate(112 84)"/><circle class="cls-1" cx="54.73" cy="43.51" r="2.13"/><circle class="cls-1" cx="75.6" cy="38.48" r="2.13"/><path class="cls-1" d="M-42.44-25.68a11.46,11.46,0,0,1-11.27-3.41,1.42,1.42,0,0,1,.11-2,1.42,1.42,0,0,1,2,.1,8.56,8.56,0,0,0,8.82,2.47,8.55,8.55,0,0,0,6.27-6.66,1.42,1.42,0,0,1,1.66-1.12,1.41,1.41,0,0,1,1.12,1.66A11.45,11.45,0,0,1-42-25.79Z" transform="translate(112 84)"/><path class="cls-1" d="M-108.48-19.33c2.1-.37,4,.09,4.11,1s-1.4,2-3.51,2.39-3.94-.1-4.11-1,1.4-2,3.51-2.38" transform="translate(112 84)"/><path class="cls-1" d="M-106.89-49.1c2.06.58,3.52,1.8,3.26,2.72s-2.14,1.21-4.2.63-3.51-1.79-3.25-2.71,2.14-1.21,4.19-.64" transform="translate(112 84)"/><path class="cls-1" d="M-92.26,10c1.1-1.83,2.66-2.91,3.48-2.42s.61,2.38-.49,4.21-2.66,2.92-3.48,2.43-.6-2.38.49-4.22" transform="translate(112 84)"/><path class="cls-1" d="M21.23-50.3c-2.1.37-3.94-.1-4.11-1s1.41-2,3.51-2.39,3.94.09,4.11,1-1.4,2-3.51,2.39" transform="translate(112 84)"/><path class="cls-1" d="M19.64-20.53c-2.06-.58-3.51-1.8-3.25-2.72s2.13-1.21,4.19-.64,3.52,1.8,3.26,2.72-2.14,1.21-4.2.64" transform="translate(112 84)"/><path class="cls-1" d="M5-79.67c-1.1,1.84-2.65,2.92-3.48,2.43s-.6-2.38.49-4.22,2.66-2.91,3.49-2.42.6,2.38-.5,4.21" transform="translate(112 84)"/></g></g></svg>