<svg xmlns="http://www.w3.org/2000/svg" viewBox="0 0 29.82 40.15"><defs><style>.cls-1{fill:#fff;}</style></defs><title>Element 35</title><g id="Ebene_2" data-name="Ebene 2"><g id="Ebene_1-2" data-name="Ebene 1"><path class="cls-1" d="M17.13,34.38A1.42,1.42,0,0,1,15.72,33V1.42A1.42,1.42,0,0,1,18.2.48a53.44,53.44,0,0,0,4.56,4.69c3.61,2.7,7.36,7.63,7,13.38a1.43,1.43,0,0,1-1.5,1.33A1.4,1.4,0,0,1,27,18.39c.33-6-4.86-10.17-5.91-10.95a25.23,25.23,0,0,1-2.51-2.38V33A1.42,1.42,0,0,1,17.13,34.38Z"/><path class="cls-1" d="M9.33,40.15C4.18,40.15,0,36.72,0,32.5s4.18-7.64,9.33-7.64,9.32,3.43,9.32,7.64S14.47,40.15,9.33,40.15Zm0-12.25C5.86,27.9,3,30,3,32.5s2.82,4.61,6.29,4.61S15.61,35,15.61,32.5,12.79,27.9,9.33,27.9Z"/></g></g></svg>