<?xml version="1.0" encoding="utf-8"?>
<!-- Generator: Adobe Illustrator 18.0.0, SVG Export Plug-In . SVG Version: 6.00 Build 0)  -->
<!DOCTYPE svg PUBLIC "-//W3C//DTD SVG 1.1//EN" "http://www.w3.org/Graphics/SVG/1.1/DTD/svg11.dtd">
<svg version="1.1" id="Ebene_1" xmlns="http://www.w3.org/2000/svg" xmlns:xlink="http://www.w3.org/1999/xlink" x="0px" y="0px"
	 viewBox="0 0 841.9 595.3" enable-background="new 0 0 841.9 595.3" xml:space="preserve">
<g>
	<path fill="#FFFFFF" d="M638.6,191.1c-2.1,3.1-2.6,6.4-1.2,7.4c1.4,0.9,4.2-0.8,6.3-4c2.1-3.1,2.6-6.4,1.2-7.4
		C643.5,186.2,640.6,187.9,638.6,191.1"/>
	<path fill="#FFFFFF" d="M564,182.6c0.1,3.8,1.5,6.8,3.2,6.7c1.7,0,3-3.1,2.9-6.9c-0.1-3.8-1.5-6.8-3.2-6.7
		C565.2,175.8,563.9,178.8,564,182.6"/>
	<path fill="#FFFFFF" d="M674.6,237.8c-3.6,1.2-6,3.5-5.4,5.1c0.6,1.6,3.9,1.9,7.4,0.7c3.6-1.2,6-3.5,5.4-5.1
		S678.2,236.6,674.6,237.8"/>
</g>
</svg>
