<svg xmlns="http://www.w3.org/2000/svg" viewBox="0 0 364.16 321.69"><defs><style>.cls-1{fill:#044854;}</style></defs><title>Element 14</title><g id="Ebene_2" data-name="Ebene 2"><g id="Ebene_1-2" data-name="Ebene 1"><path class="cls-1" d="M364.11,159.58a18.93,18.93,0,0,0-12.73-16.67c-13-4.42-31.27-15.82-51.92-42.76-19.72-25.74-18-58.32-16-77.2A20.42,20.42,0,0,0,270,1.57l-.71-.25a19.93,19.93,0,0,0-18.11,2.46C238,13,210.4,29.6,181.93,29.6c-26.21,0-53.45-15.44-68.79-25.81a22.27,22.27,0,0,0-25.7.6c-5.64,4.18-7,12-6,18.92C83.75,40,83.81,72,65.26,99,51,119.79,28.67,133.44,13.56,140.88,3.83,145.67-1,152.89.17,163.51S10.5,179.22,15.3,180.79c11,3.6,24,10.26,45.64,35.82,21.78,25.72,22.83,60.06,20.45,78.85-1.12,8.78,1,17.65,7.94,23.09,6.65,5.17,18.28,3.48,25-1.56,7.92-5.95,16.32-11.64,25.06-15.63,9.78-4.47,19.19-7,25.17-7.47,3.24-.27,6.27-1.4,7.29-4.49,1.23-3.74,4-8.1,10.07-8.1,5.92,0,8.76,4.05,10.12,7.66a7.59,7.59,0,0,0,6.39,4.94c4.21.37,11.71,2,24.92,7.06,10.87,4.16,18.85,10.31,25.55,14.69,11.57,7.58,20.38,5.62,26.22,1.89a16,16,0,0,0,7.22-15.77c-1.92-13.95-3.71-46.38,14.16-76.91,14.75-25.19,37.74-37.44,52.51-44.44C357.87,176.23,364.78,169.35,364.11,159.58ZM19.66,170.89A9.94,9.94,0,1,1,29.6,161,9.94,9.94,0,0,1,19.66,170.89Zm81.07-161a9.94,9.94,0,1,1-9.94,9.94A9.94,9.94,0,0,1,100.73,9.92Zm.72,302.24a9.95,9.95,0,1,1,9.94-10A9.95,9.95,0,0,1,101.45,312.16Zm34.21-111.77h-9.89V182.61h9.89Zm0-25.61h-9.89V157h9.89Zm0-25.61h-9.89V131.4h9.89Zm0-25.61h-9.89V105.79h9.89Zm0-25.6h-9.89V80.18h9.89Zm26.13,102.43h-9.9V182.61h9.9Zm0-25.61h-9.9V157h9.9Zm0-25.61h-9.9V131.4h9.9Zm0-25.61h-9.9V105.79h9.9Zm0-25.6h-9.9V80.18h9.9Zm26.12,102.43H178V182.61h9.89Zm0-25.61H178V157h9.89Zm0-25.61H178V131.4h9.89Zm0-25.61H178V105.79h9.89Zm0-25.6H178V80.18h9.89ZM214,200.39h-9.9V182.61H214Zm0-25.61h-9.9V157H214Zm0-25.61h-9.9V131.4H214Zm0-25.61h-9.9V105.79H214ZM214,98h-9.9V80.18H214Zm26.12,102.43h-9.9V182.61h9.9Zm0-25.61h-9.9V157h9.9Zm0-25.61h-9.9V131.4h9.9Zm0-25.61h-9.9V105.79h9.9Zm0-25.6h-9.9V80.18h9.9Zm23.26-87.51a9.95,9.95,0,1,1-9.94,10A9.94,9.94,0,0,1,263.42,10.45Zm.64,300.24a9.95,9.95,0,1,1,9.94-9.95A9.94,9.94,0,0,1,264.06,310.69ZM344.5,171a9.95,9.95,0,1,1,9.94-9.95A10,10,0,0,1,344.5,171Z"/></g></g></svg>