<svg xmlns="http://www.w3.org/2000/svg" viewBox="0 0 37.92 37.87"><defs><style>.cls-1{fill:#fff;}</style></defs><title>Element 63</title><g id="Ebene_2" data-name="Ebene 2"><g id="Ebene_1-2" data-name="Ebene 1"><path class="cls-1" d="M19,37.87a2.34,2.34,0,0,1-2.14-1.44c-2.17-5.23-5.48-8.13-8.68-10.95C4.07,21.91.23,18.54,0,11.28A11.39,11.39,0,0,1,3.13,3a9.8,9.8,0,0,1,7.06-3A10.12,10.12,0,0,1,19,5.21,10.12,10.12,0,0,1,27.73,0a9.76,9.76,0,0,1,7.05,3,11.35,11.35,0,0,1,3.13,8.24c-.23,7.26-4.06,10.63-8.13,14.2-3.2,2.82-6.51,5.72-8.68,11A2.34,2.34,0,0,1,19,37.87Zm-8.77-35A7,7,0,0,0,5.17,5a8.52,8.52,0,0,0-2.33,6.17c.19,6,3.27,8.74,7.17,12.17,3.07,2.69,6.53,5.73,9,10.89,2.42-5.16,5.88-8.2,9-10.89,3.9-3.43,7-6.14,7.17-12.17A8.52,8.52,0,0,0,32.75,5a7,7,0,0,0-5-2.19,7.59,7.59,0,0,0-7.35,7.76v.18H17.54v-.18A7.59,7.59,0,0,0,10.19,2.83Z"/></g></g></svg>