<svg xmlns="http://www.w3.org/2000/svg" viewBox="0 0 114.91 121.23"><defs><style>.cls-1{fill:#fff;}.cls-2{fill:#e6007d;stroke:#e6007d;stroke-linecap:round;stroke-linejoin:round;stroke-width:1.03px;}</style></defs><title>Element 49</title><g id="Ebene_2" data-name="Ebene 2"><g id="Ebene_1-2" data-name="Ebene 1"><rect class="cls-1" x="105.01" y="102.94" width="9.9" height="17.77"/><rect class="cls-1" x="78.89" y="102.94" width="9.9" height="17.77"/><rect class="cls-2" x="26.64" y="102.94" width="9.89" height="17.77"/><rect class="cls-1" x="0.52" y="102.94" width="9.9" height="17.77"/><rect class="cls-1" x="105.01" y="77.34" width="9.9" height="17.77"/><rect class="cls-2" x="0.52" y="77.34" width="9.9" height="17.77"/><rect class="cls-1" x="105.01" y="0.52" width="9.9" height="17.77"/><rect class="cls-2" x="52.76" y="0.52" width="9.9" height="17.77"/><rect class="cls-2" x="52.76" y="102.94" width="9.9" height="17.77"/><rect class="cls-2" x="78.89" y="77.34" width="9.9" height="17.77"/><rect class="cls-1" x="52.76" y="77.34" width="9.9" height="17.77"/><rect class="cls-1" x="26.64" y="77.34" width="9.89" height="17.77"/><rect class="cls-1" x="105.01" y="51.73" width="9.9" height="17.77"/><rect class="cls-1" x="78.89" y="51.73" width="9.9" height="17.77"/><rect class="cls-2" x="52.76" y="51.73" width="9.9" height="17.77"/><rect class="cls-1" x="26.64" y="51.73" width="9.89" height="17.77"/><rect class="cls-1" x="0.52" y="51.73" width="9.9" height="17.77"/><rect class="cls-1" x="105.01" y="26.12" width="9.9" height="17.77"/><rect class="cls-2" x="78.89" y="26.12" width="9.9" height="17.77"/><rect class="cls-1" x="52.76" y="26.12" width="9.9" height="17.77"/><rect class="cls-1" x="26.64" y="26.12" width="9.89" height="17.77"/><rect class="cls-1" x="0.52" y="26.12" width="9.9" height="17.77"/><rect class="cls-2" x="78.89" y="0.52" width="9.9" height="17.77"/><rect class="cls-2" x="26.64" y="0.52" width="9.89" height="17.77"/><rect class="cls-2" x="0.52" y="0.52" width="9.9" height="17.77"/></g></g></svg>