<svg xmlns="http://www.w3.org/2000/svg" viewBox="0 0 67.92 59.67"><defs><style>.cls-1{fill:#1d1d1b;}.cls-2{fill:none;stroke:#fff;stroke-linecap:round;stroke-linejoin:round;stroke-width:2.5px;}</style></defs><title>Element 69</title><g id="Ebene_2" data-name="Ebene 2"><g id="Ebene_1-2" data-name="Ebene 1"><circle class="cls-1" cx="34.79" cy="29.46" r="1.23"/><path class="cls-2" d="M56.93,50.75a9.71,9.71,0,0,0-1.32-7.37,9.56,9.56,0,0,0-3-3,9.79,9.79,0,0,0-7.86-1.16C22.93,5.67,19.47-2.22,13.72,2.5L39.53,42.82a9.78,9.78,0,0,0,2.61,14.09,9.78,9.78,0,0,0,14.79-6.16Z"/><path class="cls-2" d="M50,52.67a4.77,4.77,0,1,1,0-8,4.77,4.77,0,0,1,0,8Z"/><path class="cls-2" d="M39.56,31.19l9.19-2.68a9.84,9.84,0,0,0,6.71,4.25,9.76,9.76,0,1,0-8.33-10.39L36.22,25.62m-7.16,2.13L1.25,36c1.07,6.22,5.68,4.83,30.92-2.65"/><path class="cls-2" d="M61.08,25.36a4.78,4.78,0,1,1,.37-3.63A4.77,4.77,0,0,1,61.08,25.36Z"/></g></g></svg>