<svg xmlns="http://www.w3.org/2000/svg" viewBox="0 0 42.75 42.63"><defs><style>.cls-1{fill:#fff;}</style></defs><title>Element 36</title><g id="Ebene_2" data-name="Ebene 2"><g id="Ebene_1-2" data-name="Ebene 1"><path class="cls-1" d="M17.13,36.85a1.42,1.42,0,0,1-1.42-1.41V4.25A1.41,1.41,0,0,1,17,2.85L41.06,0a1.42,1.42,0,0,1,.33,2.82L18.55,5.51V35.44A1.42,1.42,0,0,1,17.13,36.85Z"/><path class="cls-1" d="M9.33,42.63C4.18,42.63,0,39.2,0,35s4.18-7.65,9.33-7.65,9.32,3.43,9.32,7.65S14.47,42.63,9.33,42.63Zm0-12.26C5.86,30.37,3,32.44,3,35s2.82,4.61,6.29,4.61,6.28-2.07,6.28-4.61S12.79,30.37,9.33,30.37Z"/><path class="cls-1" d="M41.23,34a1.42,1.42,0,0,1-1.42-1.42V1.42a1.42,1.42,0,1,1,2.83,0V32.6A1.42,1.42,0,0,1,41.23,34Z"/><path class="cls-1" d="M33.42,39.79c-5.14,0-9.32-3.43-9.32-7.64s4.18-7.65,9.32-7.65,9.33,3.43,9.33,7.65S38.56,39.79,33.42,39.79Zm0-12.25c-3.46,0-6.28,2.06-6.28,4.61s2.82,4.6,6.28,4.6,6.29-2.06,6.29-4.6S36.89,27.54,33.42,27.54Z"/></g></g></svg>