<svg xmlns="http://www.w3.org/2000/svg" viewBox="0 0 36.01 56.76"><defs><style>.cls-1{fill:#fff;}</style></defs><title>Element 59</title><g id="Ebene_2" data-name="Ebene 2"><g id="Ebene_1-2" data-name="Ebene 1"><path class="cls-1" d="M-76-33.32l-2.62,1.09-8.57-20.44L-90-51.47l-2.57-6.14,2.61-1.1,1.48,3.53,2.85-1.2Zm-11.9,5-2.61,1.1-9.67-23.06,2.86-1.19L-98.79-55l2.61-1.1L-93.6-50l-2.86,1.19Z" transform="translate(112 84)"/><path class="cls-1" d="M-81.17-60.41l-25,10.49-1.09-2.62,2.61-1.09-6.49-15.48a10.76,10.76,0,0,1,5.75-14,10.65,10.65,0,0,1,8.22,0,10.66,10.66,0,0,1,5.83,5.78l6.49,15.48,2.61-1.1Zm-20.89,5.68,14.56-6.11L-94-76.32a7.84,7.84,0,0,0-4.29-4.25,7.85,7.85,0,0,0-6,0,7.9,7.9,0,0,0-4.23,10.34Z" transform="translate(112 84)"/></g></g></svg>