<svg xmlns="http://www.w3.org/2000/svg" viewBox="0 0 114.39 121.23"><defs><style>.cls-1{fill:#fff;}.cls-2{fill:#e6007d;stroke:#e6007d;stroke-linecap:round;stroke-linejoin:round;stroke-width:1.03px;}</style></defs><title>Element 47</title><g id="Ebene_2" data-name="Ebene 2"><g id="Ebene_1-2" data-name="Ebene 1"><rect class="cls-1" x="104.49" y="102.94" width="9.9" height="17.77"/><rect class="cls-2" x="78.37" y="102.94" width="9.9" height="17.77"/><rect class="cls-2" x="26.12" y="102.94" width="9.89" height="17.77"/><rect class="cls-1" y="102.94" width="9.9" height="17.77"/><rect class="cls-1" x="104.49" y="77.34" width="9.9" height="17.77"/><rect class="cls-1" y="77.34" width="9.9" height="17.77"/><rect class="cls-1" x="104.49" y="0.52" width="9.9" height="17.77"/><rect class="cls-2" x="52.25" y="0.52" width="9.9" height="17.77"/><rect class="cls-2" x="52.25" y="102.94" width="9.9" height="17.77"/><rect class="cls-1" x="78.37" y="77.34" width="9.9" height="17.77"/><rect class="cls-2" x="52.25" y="77.34" width="9.9" height="17.77"/><rect class="cls-1" x="26.12" y="77.34" width="9.89" height="17.77"/><rect class="cls-1" x="104.49" y="51.73" width="9.9" height="17.77"/><rect class="cls-1" x="78.37" y="51.73" width="9.9" height="17.77"/><rect class="cls-2" x="52.25" y="51.73" width="9.9" height="17.77"/><rect class="cls-1" x="26.12" y="51.73" width="9.89" height="17.77"/><rect class="cls-1" y="51.73" width="9.9" height="17.77"/><rect class="cls-1" x="104.49" y="26.12" width="9.9" height="17.77"/><rect class="cls-1" x="78.37" y="26.12" width="9.9" height="17.77"/><rect class="cls-2" x="52.25" y="26.12" width="9.9" height="17.77"/><rect class="cls-2" x="26.12" y="26.12" width="9.89" height="17.77"/><rect class="cls-1" y="26.12" width="9.9" height="17.77"/><rect class="cls-1" x="78.37" y="0.52" width="9.9" height="17.77"/><rect class="cls-1" x="26.12" y="0.52" width="9.89" height="17.77"/><rect class="cls-1" y="0.52" width="9.9" height="17.77"/></g></g></svg>