<svg xmlns="http://www.w3.org/2000/svg" viewBox="0 0 41.43 54.28"><defs><style>.cls-1{fill:#fff;}</style></defs><title>Element 64</title><g id="Ebene_2" data-name="Ebene 2"><g id="Ebene_1-2" data-name="Ebene 1"><rect class="cls-1" x="7.21" y="47.03" width="11.34" height="2.83" transform="translate(-37.19 45.98) rotate(-72.28)"/><path class="cls-1" d="M14,44.31A20.11,20.11,0,0,1,1,19.06l2.15-6.7a1.41,1.41,0,0,1,1.78-.92,1.43,1.43,0,0,1,.92,1.78L3.65,19.93A17.25,17.25,0,0,0,36.52,30.42l2.14-6.7a1.42,1.42,0,0,1,2.7.86l-2.14,6.71A20.11,20.11,0,0,1,14,44.31Z"/><path class="cls-1" d="M16.29,37.42h0A13.64,13.64,0,0,1,7.45,20.3L10.91,9.48a13.63,13.63,0,0,1,26,8.29L33.41,28.59A13.62,13.62,0,0,1,16.29,37.42ZM27.18,3.35a10.8,10.8,0,0,0-13.57,7L10.15,21.16a10.8,10.8,0,0,0,7,13.56h0a10.79,10.79,0,0,0,13.55-7l3.46-10.82A10.79,10.79,0,0,0,27.18,3.35Z"/><rect class="cls-1" x="20.95" y="5.99" width="2.83" height="25.51" transform="translate(-2.29 34.35) rotate(-72.28)"/></g></g></svg>