<?xml version="1.0" encoding="utf-8"?>
<!-- Generator: Adobe Illustrator 18.0.0, SVG Export Plug-In . SVG Version: 6.00 Build 0)  -->
<!DOCTYPE svg PUBLIC "-//W3C//DTD SVG 1.1//EN" "http://www.w3.org/Graphics/SVG/1.1/DTD/svg11.dtd">
<svg version="1.1" id="Ebene_1" xmlns="http://www.w3.org/2000/svg" xmlns:xlink="http://www.w3.org/1999/xlink" x="0px" y="0px"
	 viewBox="0 0 841.9 595.3" enable-background="new 0 0 841.9 595.3" xml:space="preserve">
<title>Element 35</title>
<g id="timer">
	<path fill="#FFFFFF" d="M410,314c-3.4,0-6.9-1-9.9-3.1l-133.4-93.4c-7.8-5.5-9.7-16.3-4.2-24.1c5.5-7.8,16.3-9.7,24.1-4.2
		L420,282.5c7.8,5.5,9.7,16.3,4.2,24.1C420.8,311.4,415.5,314,410,314z"/>
	<rect x="601" y="285.3" fill="#FFFFFF" width="77" height="35"/>
	<rect x="401" y="484.3" fill="#FFFFFF" width="35" height="78"/>
	<circle fill="#FFFFFF" cx="410.1" cy="296.7" r="43"/>
	<path fill="#FFFFFF" d="M420.7,568c-73.5,0-142.6-28.6-194.5-80.6c-52-52-80.6-121-80.6-194.5c0-50.7,13.9-100.3,40.2-143.3
		l29.5,18c-23,37.6-35.2,81-35.2,125.3c0,64.2,25,124.6,70.4,170.1s105.8,70.4,170.1,70.4c64.2,0,124.6-25,170.1-70.4
		s70.4-105.8,70.4-170.1c0-64.2-24.9-124.6-70.3-170.1S485,52.4,421,52.4V17.8c73,0,142.4,28.6,194.4,80.6
		c52,52,80.5,121,80.5,194.5s-28.7,142.6-80.6,194.5S494.2,568,420.7,568z"/>
</g>
</svg>
