<svg xmlns="http://www.w3.org/2000/svg" viewBox="0 0 61.42 65.4"><defs><style>.cls-1{fill:#fff;}</style></defs><title>Element 60</title><g id="Ebene_2" data-name="Ebene 2"><g id="Ebene_1-2" data-name="Ebene 1"><path class="cls-1" d="M44.23,40.37h0c-3.6,0-8.48-.06-13.36-.13s-9.77-.14-13.39-.14c-2.28,0-3.82,0-4.72.08a12,12,0,0,1-1.44-24,11.77,11.77,0,0,1,3.84.39A16.73,16.73,0,0,1,30.87,0,16.82,16.82,0,0,1,48.35,14,13.17,13.17,0,0,1,49,40.29C48.1,40.35,46.52,40.37,44.23,40.37Zm-26.76-3.1c3.63,0,8.53.07,13.43.13s9.73.14,13.32.14h0c2.24,0,3.76,0,4.65-.08a10.33,10.33,0,0,0-1.24-20.63l-.4,0a1.41,1.41,0,0,1-1-.32,1.37,1.37,0,0,1-.51-1A14,14,0,0,0,31,2.86,13.89,13.89,0,0,0,18,17.55c0,.27,0,.53.08.79a1.5,1.5,0,0,1-.57,1.4,1.4,1.4,0,0,1-1.44.19,9,9,0,0,0-4.6-.93,9.19,9.19,0,1,0,1.1,18.35C13.54,37.3,15.14,37.27,17.47,37.27Z"/><polygon class="cls-1" points="34 28.43 15.88 49.17 29.18 49.17 18.63 65.4 45.21 44.92 28.04 44.92 34 28.43"/></g></g></svg>