<?xml version="1.0" encoding="utf-8"?>
<!-- Generator: Adobe Illustrator 18.0.0, SVG Export Plug-In . SVG Version: 6.00 Build 0)  -->
<!DOCTYPE svg PUBLIC "-//W3C//DTD SVG 1.1//EN" "http://www.w3.org/Graphics/SVG/1.1/DTD/svg11.dtd">
<svg version="1.1" id="Ebene_1" xmlns="http://www.w3.org/2000/svg" xmlns:xlink="http://www.w3.org/1999/xlink" x="0px" y="0px"
	 viewBox="0 0 841.9 595.3" enable-background="new 0 0 841.9 595.3" xml:space="preserve">
<title>Element 35</title>
<g>
	<g>
		<path fill="none" stroke="#FFFFFF" stroke-width="9.724" stroke-linecap="round" stroke-miterlimit="10" d="M102.9,432
			c-0.6-0.6-1.2-1.1-1.8-1.7"/>
		
			<path fill="none" stroke="#FFFFFF" stroke-width="9.724" stroke-linecap="round" stroke-miterlimit="10" stroke-dasharray="4.7423,28.4537" d="
			M82.3,409.1c-24.2-31.9-38.6-71.6-38.6-114.7c0-104.7,84.9-189.6,189.6-189.6c33.3,0,64.6,8.6,91.8,23.7"/>
		<path fill="none" stroke="#FFFFFF" stroke-width="9.724" stroke-linecap="round" stroke-miterlimit="10" d="M337.3,135.8
			c0.7,0.4,1.4,0.9,2,1.3"/>
	</g>
</g>
<g>
	<g>
		<path fill="none" stroke="#FFFFFF" stroke-width="9.724" stroke-linecap="round" stroke-miterlimit="10" d="M414.1,351.7
			c-0.2,0.8-0.5,1.5-0.7,2.3"/>
		
			<path fill="none" stroke="#FFFFFF" stroke-width="9.724" stroke-linecap="round" stroke-miterlimit="10" stroke-dasharray="4.8383,29.03" d="
			M402.1,380.8c-18.5,36.1-48.3,65.5-84.7,83.6"/>
		<path fill="none" stroke="#FFFFFF" stroke-width="9.724" stroke-linecap="round" stroke-miterlimit="10" d="M304.2,470.3
			c-0.8,0.3-1.5,0.6-2.3,0.9"/>
	</g>
</g>
<g>
	<g>
		<path fill="none" stroke="#FFFFFF" stroke-width="9.724" stroke-linecap="round" stroke-miterlimit="10" d="M442.6,204.5
			c0.4-0.7,0.8-1.4,1.2-2.1"/>
		
			<path fill="none" stroke="#FFFFFF" stroke-width="9.724" stroke-linecap="round" stroke-miterlimit="10" stroke-dasharray="4.9418,29.6508" d="
			M460.1,177.6c34.5-44.3,88.3-72.9,148.8-72.9c104.1,0,188.4,84.4,188.4,188.4c0,98.2-75.2,178.9-171.2,187.6"/>
		<path fill="none" stroke="#FFFFFF" stroke-width="9.724" stroke-linecap="round" stroke-miterlimit="10" d="M611.3,481.5
			c-0.8,0-1.6,0-2.4,0"/>
	</g>
</g>
<path fill="#FFFFFF" d="M580.9,497.2l-27.7-32c-1.1-1.3-0.4-3.2,1.2-3.6l41.6-8c1.6-0.3,3,1.3,2.5,2.8l-13.9,40
	C584,498.1,582,498.5,580.9,497.2z"/>
<path fill="#FFFFFF" d="M219.8,476l-40.1,13.5c-1.6,0.5-3.2-0.8-2.8-2.5l8.3-41.5c0.3-1.6,2.3-2.3,3.6-1.2l31.8,28
	C221.8,473.4,221.4,475.5,219.8,476z"/>
</svg>
