<svg xmlns="http://www.w3.org/2000/svg" viewBox="0 0 49.36 36.03"><defs><style>.cls-1{fill:#e6007d;}.cls-2{fill:#bcd0ce;}.cls-3{fill:#bc1254;}.cls-4{fill:#1e1e1c;}</style></defs><title>Element 43</title><g id="Ebene_2" data-name="Ebene 2"><g id="Ebene_1-2" data-name="Ebene 1"><path class="cls-1" d="M16.21,17.94a5.9,5.9,0,0,1-3.7,1H5.73V17.3L7.2,17V7.12L5.73,6.84V5.17h6.12a6.59,6.59,0,0,1,3.8,1A3.21,3.21,0,0,1,17,9a3,3,0,0,1-2,2.84,2.93,2.93,0,0,1,1.86,1.14,3.33,3.33,0,0,1,.62,2,3.57,3.57,0,0,1-1.3,3M15.12.41C9-1.33,3,2.67,1.29,8.52l-.85,3A11,11,0,0,0,8,25.13l21.8,6.47L36.87,7.23Z"/><path class="cls-1" d="M13.8,9.92a1.21,1.21,0,0,0,.47-1,1.31,1.31,0,0,0-.47-1.1,2.35,2.35,0,0,0-1.4-.35H10v2.84h2.49a2.12,2.12,0,0,0,1.32-.36"/><path class="cls-1" d="M12.71,12.86H10v4h2.55a2.54,2.54,0,0,0,1.67-.47,1.75,1.75,0,0,0,.58-1.42,2.27,2.27,0,0,0-.49-1.55,2.06,2.06,0,0,0-1.56-.53"/><path class="cls-2" d="M48.7,27,30.28,35.92a1.2,1.2,0,0,1-1.58-.55l-9-18.57a1.18,1.18,0,0,1,.54-1.58L38.67,6.29a1.17,1.17,0,0,1,1.57.55l9,18.57A1.17,1.17,0,0,1,48.7,27"/><path class="cls-3" d="M40.88,18a7.12,7.12,0,1,1-9.52-3.3A7.12,7.12,0,0,1,40.88,18"/><path class="cls-4" d="M25.29,16.11A2.37,2.37,0,1,1,22.13,15a2.36,2.36,0,0,1,3.16,1.1"/><path class="cls-4" d="M40.48,8.75a2.37,2.37,0,1,1-3.16-1.1,2.36,2.36,0,0,1,3.16,1.1"/><path class="cls-4" d="M32.62,31.22a2.37,2.37,0,1,1-3.16-1.09,2.36,2.36,0,0,1,3.16,1.09"/><path class="cls-4" d="M47.8,23.86a2.36,2.36,0,1,1-3.16-1.1,2.37,2.37,0,0,1,3.16,1.1"/></g></g></svg>