<svg xmlns="http://www.w3.org/2000/svg" viewBox="0 0 114.39 120.2"><defs><style>.cls-1{fill:#fff;}</style></defs><title>Element 24</title><g id="Ebene_2" data-name="Ebene 2"><g id="Ebene_1-2" data-name="Ebene 1"><rect class="cls-1" x="104.49" y="102.43" width="9.9" height="17.77"/><rect class="cls-1" x="78.37" y="102.43" width="9.9" height="17.77"/><rect class="cls-1" x="26.12" y="102.43" width="9.89" height="17.77"/><rect class="cls-1" y="102.43" width="9.9" height="17.77"/><rect class="cls-1" x="104.49" y="76.82" width="9.9" height="17.77"/><rect class="cls-1" y="76.82" width="9.9" height="17.77"/><rect class="cls-1" x="104.49" width="9.9" height="17.77"/><rect class="cls-1" x="52.25" width="9.9" height="17.77"/><rect class="cls-1" x="52.25" y="102.43" width="9.9" height="17.77"/><rect class="cls-1" x="78.37" y="76.82" width="9.9" height="17.77"/><rect class="cls-1" x="52.25" y="76.82" width="9.9" height="17.77"/><rect class="cls-1" x="26.12" y="76.82" width="9.89" height="17.77"/><rect class="cls-1" x="104.49" y="51.21" width="9.9" height="17.77"/><rect class="cls-1" x="78.37" y="51.21" width="9.9" height="17.77"/><rect class="cls-1" x="52.25" y="51.21" width="9.9" height="17.77"/><rect class="cls-1" x="26.12" y="51.21" width="9.89" height="17.77"/><rect class="cls-1" y="51.21" width="9.9" height="17.77"/><rect class="cls-1" x="104.49" y="25.61" width="9.9" height="17.77"/><rect class="cls-1" x="78.37" y="25.61" width="9.9" height="17.77"/><rect class="cls-1" x="52.25" y="25.61" width="9.9" height="17.77"/><rect class="cls-1" x="26.12" y="25.61" width="9.89" height="17.77"/><rect class="cls-1" y="25.61" width="9.9" height="17.77"/><rect class="cls-1" x="78.37" width="9.9" height="17.77"/><rect class="cls-1" x="26.12" width="9.89" height="17.77"/><rect class="cls-1" width="9.9" height="17.77"/></g></g></svg>