<?xml version="1.0" encoding="utf-8"?>
<!-- Generator: Adobe Illustrator 18.0.0, SVG Export Plug-In . SVG Version: 6.00 Build 0)  -->
<!DOCTYPE svg PUBLIC "-//W3C//DTD SVG 1.1//EN" "http://www.w3.org/Graphics/SVG/1.1/DTD/svg11.dtd">
<svg version="1.1" id="Ebene_1" xmlns="http://www.w3.org/2000/svg" xmlns:xlink="http://www.w3.org/1999/xlink" x="0px" y="0px"
	 viewBox="0 0 841.9 595.3" enable-background="new 0 0 841.9 595.3" xml:space="preserve">
<g>
	<path fill="#FFFFFF" d="M167.7,263.2v-13.9h47.5v13.9l-12.3,2.4v33.1h46.8v-33.1l-12.3-2.4v-13.9h12.3h22.9H285v13.9l-12.3,2.4
		v82.4l12.3,2.4v13.8h-47.5v-13.8l12.3-2.4v-31.5h-46.8v31.5l12.3,2.4v13.8h-47.5v-13.8l12.2-2.4v-82.4L167.7,263.2z"/>
	<path fill="#FFFFFF" d="M349.4,364.1c-0.6-1.4-1.2-2.9-1.7-4.4c-0.5-1.5-0.8-3-1.1-4.5c-2.7,3.2-6.1,5.7-10,7.6
		c-3.9,1.9-8.4,2.9-13.4,2.9c-8.4,0-15-2.3-19.9-6.8c-4.9-4.5-7.4-10.7-7.4-18.6c0-8,3.2-14.2,9.6-18.5c6.4-4.4,15.8-6.5,28.2-6.5
		h11.7v-8.4c0-4.1-1.2-7.3-3.5-9.5c-2.4-2.3-5.9-3.4-10.5-3.4c-2.6,0-5,0.3-7,0.9c-2,0.6-3.7,1.3-5,2.2l-1.5,9.1h-17.3l0.1-18.9
		c4.2-2.8,9-5.2,14.5-7.2c5.4-1.9,11.4-2.9,17.8-2.9c10.6,0,19.1,2.6,25.7,7.8c6.6,5.2,9.9,12.5,9.9,22.1v35.2c0,1.3,0,2.5,0,3.7
		c0,1.2,0.1,2.3,0.3,3.3l7,0.9v13.8H349.4z M329.5,348.7c3.5,0,6.6-0.8,9.5-2.2c2.8-1.5,5-3.4,6.6-5.6v-13h-11.7
		c-4.9,0-8.6,1.1-11.1,3.4c-2.5,2.3-3.8,5-3.8,8.2c0,2.9,0.9,5.2,2.8,6.8C323.6,347.9,326.2,348.7,329.5,348.7z"/>
	<path fill="#FFFFFF" d="M387.8,255v-13.9h35.3v106.8l11.1,2.4v13.8H389v-13.8l11.1-2.4v-90.6L387.8,255z"/>
	<path fill="#FFFFFF" d="M445.7,255v-13.9H481v106.8l11.1,2.4v13.8h-45.2v-13.8l11.1-2.4v-90.6L445.7,255z"/>
</g>
</svg>
