<svg xmlns="http://www.w3.org/2000/svg" viewBox="0 0 569.96 220.41"><defs><style>.cls-1{fill:#fff;}</style></defs><title>Element 37</title><g id="Ebene_2" data-name="Ebene 2"><g id="Ebene_1-2" data-name="Ebene 1"><path class="cls-1" d="M445.86,30.77c-7,.8-13-1.11-13.4-4.28s5.06-6.38,12.09-7.19,13,1.12,13.4,4.29S452.9,30,445.86,30.77" transform="translate(112 84)"/><path class="cls-1" d="M434.58,129c-6.69-2.32-11.27-6.65-10.22-9.66s7.32-3.57,14-1.25,11.27,6.65,10.22,9.66-7.31,3.57-14,1.25" transform="translate(112 84)"/><path class="cls-1" d="M398.1-69.66c-4,5.84-9.37,9.12-12,7.32s-1.52-8,2.48-13.84,9.37-9.13,12-7.33,1.51,8-2.49,13.85" transform="translate(112 84)"/><path class="cls-1" d="M-97.8,12.19c6.64,2.47,11.13,6.88,10,9.87s-7.4,3.41-14,1-11.12-6.88-10-9.87,7.39-3.41,14-1" transform="translate(112 84)"/><path class="cls-1" d="M-43.39-70.3c4.92,5.09,7,11,4.76,13.23s-8.14-.12-13.06-5.21-7.06-11-4.76-13.23,8.14.12,13.06,5.21" transform="translate(112 84)"/><path class="cls-1" d="M-100.57,123.37c6.21-3.41,12.48-3.9,14-1.11s-2.26,7.82-8.47,11.23-12.49,3.9-14,1.11,2.26-7.82,8.47-11.23" transform="translate(112 84)"/></g></g></svg>