<svg xmlns="http://www.w3.org/2000/svg" viewBox="0 0 264.69 36.83"><defs><style>.cls-1{fill:#fff;}.cls-2{fill:#bcd0ce;}.cls-3{fill:#486a76;}.cls-4{fill:#1e1e1c;}.cls-5{fill:#bc1254;}</style></defs><title>Element 15</title><g id="Ebene_2" data-name="Ebene 2"><g id="Ebene_1-2" data-name="Ebene 1"><path class="cls-1" d="M50.09,17.94H45.35V16.26l1-.17-.61-1.92H41.19l-.61,1.92,1,.17v1.68H36.81V16.26l1-.15L42,4h2.86l4.2,12.14,1,.15ZM38,.54,14.85,8l7.79,24.23,24.52-8.38C53,22,54.88,16.58,53,10.7l-1-3A11.13,11.13,0,0,0,38,.54"/><polygon class="cls-1" points="43.09 6.83 41.52 11.74 44.72 11.74 43.15 6.83 43.09 6.83"/><path class="cls-1" d="M231.53,18.66a5.9,5.9,0,0,1-3.7,1h-6.78V18l1.47-.29V7.84l-1.47-.28V5.89h6.13a6.57,6.57,0,0,1,3.79,1,3.21,3.21,0,0,1,1.36,2.83,3,3,0,0,1-.5,1.71,3.08,3.08,0,0,1-1.47,1.13,2.94,2.94,0,0,1,1.86,1.14,3.4,3.4,0,0,1,.62,2,3.58,3.58,0,0,1-1.31,3M230.45,1.13c-6.13-1.74-12.15,2.26-13.84,8.11l-.85,3a11,11,0,0,0,7.54,13.65l21.8,6.47L252.19,8Z"/><path class="cls-1" d="M229.13,10.64a1.21,1.21,0,0,0,.46-1,1.27,1.27,0,0,0-.47-1.1,2.31,2.31,0,0,0-1.39-.35h-2.42V11h2.49a2.13,2.13,0,0,0,1.33-.36"/><path class="cls-1" d="M228,13.58h-2.76v4h2.55a2.54,2.54,0,0,0,1.67-.47,1.72,1.72,0,0,0,.58-1.42,2.2,2.2,0,0,0-.49-1.55,2,2,0,0,0-1.55-.53"/><path class="cls-2" d="M18.92,36.7.65,27.46a1.17,1.17,0,0,1-.52-1.58L9.44,7.46A1.19,1.19,0,0,1,11,6.94L29.3,16.18a1.19,1.19,0,0,1,.52,1.59L20.5,36.18a1.17,1.17,0,0,1-1.58.52"/><path class="cls-3" d="M21.33,25a7.12,7.12,0,1,1-3.14-9.57A7.13,7.13,0,0,1,21.33,25"/><path class="cls-4" d="M13.38,11.49a2.36,2.36,0,1,1-1-3.18,2.36,2.36,0,0,1,1,3.18"/><path class="cls-4" d="M28.44,19.11a2.36,2.36,0,1,1-1-3.18,2.36,2.36,0,0,1,1,3.18"/><path class="cls-4" d="M5.8,26.48a2.37,2.37,0,1,1-1-3.18,2.36,2.36,0,0,1,1,3.18"/><path class="cls-4" d="M20.86,34.1a2.37,2.37,0,1,1-1.05-3.18,2.36,2.36,0,0,1,1.05,3.18"/><path class="cls-2" d="M264,27.7,245.6,36.63a1.18,1.18,0,0,1-1.58-.54l-9-18.57a1.18,1.18,0,0,1,.55-1.58L254,7a1.17,1.17,0,0,1,1.57.55l9,18.57A1.17,1.17,0,0,1,264,27.7"/><path class="cls-5" d="M256.2,18.71a7.12,7.12,0,1,1-9.51-3.3,7.12,7.12,0,0,1,9.51,3.3"/><path class="cls-4" d="M240.61,16.83a2.36,2.36,0,1,1-3.16-1.1,2.37,2.37,0,0,1,3.16,1.1"/><path class="cls-4" d="M255.8,9.47a2.37,2.37,0,1,1-3.16-1.1,2.36,2.36,0,0,1,3.16,1.1"/><path class="cls-4" d="M247.94,31.94a2.37,2.37,0,1,1-3.16-1.09,2.37,2.37,0,0,1,3.16,1.09"/><path class="cls-4" d="M263.13,24.58a2.37,2.37,0,1,1-3.16-1.1,2.36,2.36,0,0,1,3.16,1.1"/></g></g></svg>