<?xml version="1.0" encoding="utf-8"?>
<!-- Generator: Adobe Illustrator 18.0.0, SVG Export Plug-In . SVG Version: 6.00 Build 0)  -->
<!DOCTYPE svg PUBLIC "-//W3C//DTD SVG 1.1//EN" "http://www.w3.org/Graphics/SVG/1.1/DTD/svg11.dtd">
<svg version="1.1" id="Ebene_1" xmlns="http://www.w3.org/2000/svg" xmlns:xlink="http://www.w3.org/1999/xlink" x="0px" y="0px"
	 viewBox="0 0 841.9 595.3" enable-background="new 0 0 841.9 595.3" xml:space="preserve">
<title>Element 53</title>
<g id="Ebene_2">
	<g id="Ebene_1-2">
		<rect x="654.5" y="505.5" fill="#FFFFFF" width="48.6" height="87.3"/>
		<rect x="526.2" y="505.5" fill="#E6007D" width="48.6" height="87.3"/>
		<rect x="269.6" y="505.5" fill="#E6007D" width="48.6" height="87.3"/>
		<rect x="141.4" y="505.5" fill="#FFFFFF" width="48.6" height="87.3"/>
		<rect x="654.5" y="379.8" fill="#E6007D" width="48.6" height="87.3"/>
		<rect x="141.4" y="379.8" fill="#E6007D" width="48.6" height="87.3"/>
		<rect x="654.5" y="2.6" fill="#FFFFFF" width="48.6" height="87.3"/>
		<rect x="397.9" y="2.6" fill="#FFFFFF" width="48.6" height="87.3"/>
		<rect x="397.9" y="505.5" fill="#E6007D" width="48.6" height="87.3"/>
		<rect x="526.2" y="379.8" fill="#FFFFFF" width="48.6" height="87.3"/>
		<rect x="397.9" y="379.8" fill="#FFFFFF" width="48.6" height="87.3"/>
		<rect x="269.6" y="379.8" fill="#FFFFFF" width="48.6" height="87.3"/>
		<rect x="654.5" y="254" fill="#FFFFFF" width="48.6" height="87.3"/>
		<rect x="526.2" y="254" fill="#FFFFFF" width="48.6" height="87.3"/>
		<rect x="397.9" y="254" fill="#FFFFFF" width="48.6" height="87.3"/>
		<rect x="269.6" y="254" fill="#FFFFFF" width="48.6" height="87.3"/>
		<rect x="141.4" y="254" fill="#FFFFFF" width="48.6" height="87.3"/>
		<rect x="654.5" y="128.3" fill="#FFFFFF" width="48.6" height="87.3"/>
		<rect x="526.2" y="128.3" fill="#E6007D" width="48.6" height="87.3"/>
		<rect x="397.9" y="128.3" fill="#FFFFFF" width="48.6" height="87.3"/>
		<rect x="269.6" y="128.3" fill="#E6007D" width="48.6" height="87.3"/>
		<rect x="141.4" y="128.3" fill="#FFFFFF" width="48.6" height="87.3"/>
		<rect x="526.2" y="2.6" fill="#E6007D" width="48.6" height="87.3"/>
		<rect x="269.6" y="2.6" fill="#E6007D" width="48.6" height="87.3"/>
		<rect x="141.4" y="2.6" fill="#FFFFFF" width="48.6" height="87.3"/>
	</g>
</g>
</svg>
