<?xml version="1.0" encoding="utf-8"?>
<!-- Generator: Adobe Illustrator 22.0.1, SVG Export Plug-In . SVG Version: 6.00 Build 0)  -->
<svg version="1.1" id="Ebene_1" xmlns="http://www.w3.org/2000/svg" xmlns:xlink="http://www.w3.org/1999/xlink" x="0px" y="0px"
	 viewBox="0 0 67.9 59.7" style="enable-background:new 0 0 67.9 59.7;" xml:space="preserve">
<style type="text/css">
	.st0{fill:#FFFFFF;}
	.st1{fill:none;stroke:#FFFFFF;stroke-width:2.5;stroke-linecap:round;stroke-linejoin:round;}
</style>
<title>Element 69</title>
<g id="Ebene_2_1_">
	<g id="Ebene_1-2">
		<circle class="st0" cx="34.8" cy="29.5" r="1.2"/>
		<path class="st1" d="M56.9,50.8c0.6-2.5,0.1-5.2-1.3-7.4c-0.8-1.2-1.8-2.2-3-3c-2.3-1.5-5.2-1.9-7.9-1.2
			C22.9,5.7,19.5-2.2,13.7,2.5l25.8,40.3c-3.2,4.3-2.3,10.5,2,13.7c0.2,0.1,0.4,0.3,0.6,0.4c4.6,2.9,10.6,1.5,13.5-3
			C56.2,52.9,56.7,51.9,56.9,50.8z"/>
		<path class="st1" d="M50,52.7c-2.2,1.4-5.2,0.8-6.6-1.4c-1.4-2.2-0.8-5.2,1.4-6.6c1.6-1,3.6-1,5.2,0c2.2,1.4,2.8,4.4,1.4,6.6
			C51,51.8,50.6,52.3,50,52.7z"/>
		<path class="st1" d="M39.6,31.2l9.2-2.7c1.5,2.3,4,3.8,6.7,4.3c5.3,0.8,10.3-2.9,11.1-8.3c0.8-5.3-2.9-10.3-8.3-11.1
			c-5.3-0.8-10.3,2.9-11.1,8.3c0,0.2-0.1,0.4-0.1,0.7l-10.9,3.2 M29.1,27.8L1.2,36c1.1,6.2,5.7,4.8,30.9-2.7"/>
		<path class="st1" d="M61.1,25.4c-1.2,2.3-4.1,3.2-6.5,1.9c-2.3-1.2-3.2-4.1-1.9-6.5c1.2-2.3,4.1-3.2,6.5-1.9
			c1.1,0.6,2,1.6,2.3,2.8C61.8,22.9,61.7,24.2,61.1,25.4z"/>
	</g>
</g>
</svg>
