<svg xmlns="http://www.w3.org/2000/svg" viewBox="0 0 55.29 63.48"><defs><style>.cls-1{fill:#fff;}</style></defs><title>Element 71</title><g id="Ebene_2" data-name="Ebene 2"><g id="Ebene_1-2" data-name="Ebene 1"><g id="robot"><path class="cls-1" d="M42.81,52.88H12.41V26.32a10,10,0,0,1,10-10H32.77a10.05,10.05,0,0,1,10,10Zm-28.4-2h26.4V26.32a8,8,0,0,0-8-8H22.45a8,8,0,0,0-8,8Z"/><rect class="cls-1" x="13.41" y="32.14" width="28.4" height="2"/><path class="cls-1" d="M32.52,29H22.69a3.88,3.88,0,0,1,0-7.76h9.83a3.88,3.88,0,0,1,0,7.76Zm-9.83-5.76a1.88,1.88,0,0,0,0,3.76h9.83a1.88,1.88,0,0,0,0-3.76Z"/><rect class="cls-1" x="26.61" y="22.6" width="2" height="5.41"/><path class="cls-1" d="M42.31,42.46l-.93-1.76,6.42-3.42a3.09,3.09,0,0,0,1.65-2.74V25.3h2v9.24a5.11,5.11,0,0,1-2.71,4.51Z"/><path class="cls-1" d="M52.42,26.19H48.48a2.88,2.88,0,0,1-2.87-2.87V19.49h2v3.83a.87.87,0,0,0,.87.87h3.94a.87.87,0,0,0,.87-.87V19.49h2v3.83A2.88,2.88,0,0,1,52.42,26.19Z"/><path class="cls-1" d="M13,42.46,6.55,39.05a5.11,5.11,0,0,1-2.71-4.51V25.3h2v9.24a3.09,3.09,0,0,0,1.65,2.74l6.43,3.42Z"/><path class="cls-1" d="M6.81,26.19H2.87A2.88,2.88,0,0,1,0,23.32V19.49H2v3.83a.87.87,0,0,0,.87.87H6.81a.87.87,0,0,0,.87-.87V19.49h2v3.83A2.88,2.88,0,0,1,6.81,26.19Z"/><path class="cls-1" d="M43.69,63.48H11.53a6,6,0,0,1-6-6v-.63a6,6,0,0,1,6-6H43.69a6,6,0,0,1,6,6v.63A6,6,0,0,1,43.69,63.48ZM11.53,52.88a4,4,0,0,0-4,4v.63a4,4,0,0,0,4,4H43.69a4,4,0,0,0,4-4v-.63a4,4,0,0,0-4-4Z"/><circle class="cls-1" cx="12.58" cy="57.18" r="2.98"/><circle class="cls-1" cx="43.05" cy="57.18" r="2.98"/><circle class="cls-1" cx="27.52" cy="57.18" r="2.98"/><path class="cls-1" d="M19.28,38.87H17.47a1,1,0,0,1,0-2h1.81a1,1,0,0,1,0,2Z"/><path class="cls-1" d="M30.89,18a1,1,0,0,1-1-1V13.7a2.29,2.29,0,0,0-4.57,0V17a1,1,0,1,1-2,0V13.7a4.29,4.29,0,0,1,8.57,0V17A1,1,0,0,1,30.89,18Z"/><path class="cls-1" d="M17,16H13.61a1,1,0,0,1,0-2H17a1,1,0,0,1,0,2Z"/><path class="cls-1" d="M41.61,16H38.25a1,1,0,0,1,0-2h3.36a1,1,0,0,1,0,2Z"/><path class="cls-1" d="M20.09,8.48a1,1,0,0,1-.71-.29L17,5.81a1,1,0,0,1,1.42-1.42l2.37,2.38a1,1,0,0,1-.7,1.71Z"/><path class="cls-1" d="M35.13,8.48a1,1,0,0,1-.71-.29,1,1,0,0,1,0-1.42L36.8,4.39a1,1,0,0,1,1.41,1.42L35.84,8.19A1,1,0,0,1,35.13,8.48Z"/><path class="cls-1" d="M27.61,5.36a1,1,0,0,1-1-1V1a1,1,0,0,1,2,0V4.36A1,1,0,0,1,27.61,5.36Z"/></g></g></g></svg>