<svg xmlns="http://www.w3.org/2000/svg" viewBox="0 0 48.95 54.31"><defs><style>.cls-1,.cls-2{fill:none;stroke:#fff;stroke-miterlimit:10;stroke-width:2.5px;}.cls-1{stroke-linecap:round;}</style></defs><title>Element 72</title><g id="Ebene_2" data-name="Ebene 2"><g id="Ebene_1-2" data-name="Ebene 1"><g id="drill"><path class="cls-1" d="M-103.8-78.52h23.39a0,0,0,0,1,0,0V-61a0,0,0,0,1,0,0H-103.8a6.72,6.72,0,0,1-6.72-6.72v-4a6.72,6.72,0,0,1,6.72-6.72Z" transform="translate(127.91 53.95) rotate(-16.53)"/><path class="cls-1" d="M-82.78-80l7.11-2.11a4.71,4.71,0,0,1,5.87,3.18l.81,2.73a4.72,4.72,0,0,1-3.18,5.88l-7.11,2.11" transform="translate(112 84)"/><line class="cls-2" x1="42.61" y1="6.48" x2="48.6" y2="4.7"/><line class="cls-1" x1="6.8" y1="13.23" x2="11.84" y2="11.74"/><line class="cls-1" x1="7.84" y1="16.75" x2="12.88" y2="15.25"/><line class="cls-1" x1="8.88" y1="20.26" x2="13.92" y2="18.77"/><rect class="cls-1" x="-100.53" y="-45.04" width="19.62" height="12.26" rx="2.89" ry="2.89" transform="translate(119.32 56.57) rotate(-16.53)"/><line class="cls-1" x1="23.36" y1="21.31" x2="23.72" y2="37.35"/><line class="cls-1" x1="17.5" y1="39.19" x2="17.15" y2="23.16"/><polyline class="cls-1" points="27.67 20.03 28.61 25.31 23.48 26.83"/></g></g></g></svg>