<svg xmlns="http://www.w3.org/2000/svg" viewBox="0 0 28.32 23.87"><defs><style>.cls-1{fill:none;stroke:#fff;stroke-linecap:round;stroke-miterlimit:10;stroke-width:1.25px;fill-rule:evenodd;}</style></defs><title>Element 46</title><g id="Ebene_2" data-name="Ebene 2"><g id="Ebene_1-2" data-name="Ebene 1"><g id="pointing"><path class="cls-1" d="M-111.37-65.22V-78.35a5,5,0,0,1,5-5h6.87" transform="translate(112 84)"/><path class="cls-1" d="M-101.32-83.37h3.58a2.27,2.27,0,0,1,2.26,2.27h0a2.26,2.26,0,0,1-2.26,2.26h-3.58" transform="translate(112 84)"/><path class="cls-1" d="M-97.31-65.28V-63h0a2.26,2.26,0,0,1-2.26,2.26h-7.28a4.52,4.52,0,0,1-4.52-4.53h0" transform="translate(112 84)"/><path class="cls-1" d="M-101.32-78.85H-96a2.26,2.26,0,0,1,2.26,2.26h0A2.26,2.26,0,0,1-96-74.33h-5.36" transform="translate(112 84)"/><path class="cls-1" d="M-101.32-74.33h7.13a2.27,2.27,0,0,1,2.26,2.27h0a2.26,2.26,0,0,1-2.26,2.26h-7.13" transform="translate(112 84)"/><path class="cls-1" d="M-101.32-69.8h14.75a2.26,2.26,0,0,1,2.26,2.26h0a2.26,2.26,0,0,1-2.26,2.26h-14.75" transform="translate(112 84)"/></g></g></g></svg>