<?xml version="1.0" encoding="utf-8"?>
<!-- Generator: Adobe Illustrator 22.0.1, SVG Export Plug-In . SVG Version: 6.00 Build 0)  -->
<svg version="1.1" id="Ebene_1" xmlns="http://www.w3.org/2000/svg" xmlns:xlink="http://www.w3.org/1999/xlink" x="0px" y="0px"
	 viewBox="0 0 364.2 321.7" style="enable-background:new 0 0 364.2 321.7;" xml:space="preserve">
<style type="text/css">
	.st0{fill:#044854;}
</style>
<title>Element 57</title>
<g id="Ebene_2_1_">
	<g id="Ebene_1-2">
		<path class="st0" d="M364.1,159.6c-0.5-7.6-5.5-14.2-12.7-16.7c-13-4.4-31.3-15.8-51.9-42.8c-19.7-25.7-18-58.3-16-77.2
			c1-9.4-4.6-18.2-13.5-21.4l-0.7-0.2c-6.1-2.2-12.8-1.2-18.1,2.5C238,13,210.4,29.6,181.9,29.6c-26.2,0-53.4-15.4-68.8-25.8
			c-7.8-5.3-18.1-5-25.7,0.6c-5.6,4.2-7,12-6,18.9C83.8,40,83.8,72,65.3,99c-14.3,20.8-36.6,34.4-51.7,41.9
			c-9.7,4.8-14.6,12-13.4,22.6s10.3,15.7,15.1,17.3c11,3.6,24,10.2,45.6,35.8c21.8,25.7,22.8,60.1,20.5,78.8
			c-1.1,8.8,1,17.6,7.9,23.1c6.7,5.2,18.3,3.5,25-1.6c7.9-6,16.3-11.6,25.1-15.6c9.8-4.5,19.2-7,25.2-7.5c3.2-0.3,6.3-1.4,7.3-4.5
			c1.2-3.7,4-8.1,10.1-8.1c5.9,0,8.8,4,10.1,7.7c1,2.7,3.5,4.7,6.4,4.9c4.2,0.4,11.7,2,24.9,7.1c10.9,4.2,18.9,10.3,25.6,14.7
			c11.6,7.6,20.4,5.6,26.2,1.9c5.3-3.4,8.1-9.6,7.2-15.8c-1.9-14-3.7-46.4,14.2-76.9c14.8-25.2,37.7-37.4,52.5-44.4
			C357.9,176.2,364.8,169.4,364.1,159.6z M19.7,170.9c-5.5,0-9.9-4.5-9.9-9.9s4.5-9.9,9.9-9.9c5.5,0,9.9,4.5,9.9,9.9c0,0,0,0,0,0
			C29.6,166.5,25.1,170.9,19.7,170.9z M100.7,9.9c5.5,0,9.9,4.5,9.9,9.9s-4.5,9.9-9.9,9.9c-5.5,0-9.9-4.5-9.9-9.9
			C90.8,14.4,95.3,9.9,100.7,9.9L100.7,9.9z M101.4,312.1c-5.5,0-10-4.4-10-9.9c0-5.5,4.4-10,9.9-10c5.5,0,9.9,4.4,10,9.9
			C111.4,307.6,107,312.1,101.4,312.1C101.5,312.2,101.5,312.2,101.4,312.1L101.4,312.1z M263.4,10.5c5.5,0,10,4.4,10,9.9
			s-4.4,10-9.9,10c-5.5,0-9.9-4.4-10-9.9C253.4,15,257.9,10.5,263.4,10.5C263.4,10.5,263.4,10.4,263.4,10.5L263.4,10.5z M264,310.7
			c-5.5,0-10-4.4-10-9.9s4.4-10,9.9-10s10,4.4,10,9.9c0,0,0,0,0,0C274,306.2,269.5,310.7,264,310.7L264,310.7z M344.5,171
			c-5.5,0-10-4.4-10-9.9c0-5.5,4.4-10,9.9-10s10,4.4,10,9.9c0,0,0,0,0,0C354.4,166.5,350,171,344.5,171z"/>
	</g>
</g>
</svg>
