<?xml version="1.0" encoding="utf-8"?>
<!-- Generator: Adobe Illustrator 18.0.0, SVG Export Plug-In . SVG Version: 6.00 Build 0)  -->
<!DOCTYPE svg PUBLIC "-//W3C//DTD SVG 1.1//EN" "http://www.w3.org/Graphics/SVG/1.1/DTD/svg11.dtd">
<svg version="1.1" id="Ebene_1" xmlns="http://www.w3.org/2000/svg" xmlns:xlink="http://www.w3.org/1999/xlink" x="0px" y="0px"
	 viewBox="0 0 1190.6 1683.8" enable-background="new 0 0 1190.6 1683.8" xml:space="preserve">
<g>
	<path fill="#FFFFFF" d="M237.1,793.2v-19.7h67.2v19.7l-17.4,3.4v46.8h66.2v-46.8l-17.4-3.4v-19.7h17.4h32.4H403v19.7l-17.4,3.4
		v116.5l17.4,3.4V936h-67.2v-19.5l17.4-3.4v-44.5h-66.2v44.5l17.4,3.4V936h-67.2v-19.5l17.3-3.4V796.6L237.1,793.2z"/>
	<path fill="#FFFFFF" d="M548.4,781.6v-19.7h49.9v151l15.7,3.4v19.5h-63.9v-19.5l15.7-3.4V784.8L548.4,781.6z"/>
	<path fill="#FFFFFF" d="M630.3,781.6v-19.7h49.9v151l15.7,3.4v19.5H632v-19.5l15.7-3.4V784.8L630.3,781.6z"/>
</g>
<g>
	<path fill="#FFFFFF" d="M475,939.5c-17.4,0-31.3-5.6-41.7-16.7c-10.4-11.1-15.6-25.3-15.6-42.5v-4.5c0-17.9,4.9-32.7,14.8-44.2
		c9.8-11.6,23-17.3,39.6-17.3c16.3,0,28.9,4.9,37.9,14.7c9,9.8,13.5,23.1,13.5,39.8v17.7h-72l-0.2,0.7c0.6,8,3.2,14.5,8,19.6
		c4.7,5.1,11.1,7.7,19.2,7.7c7.2,0,13.2-0.7,17.9-2.2c4.8-1.4,10-3.7,15.6-6.9l8.8,20.1c-5,3.9-11.4,7.2-19.3,9.9
		C493.5,938.2,484.7,939.5,475,939.5z M472.1,839.4c-6,0-10.8,2.3-14.3,6.9c-3.5,4.6-5.6,10.7-6.5,18.2l0.3,0.6h39.9v-2.9
		c0-6.9-1.6-12.4-4.8-16.5C483.5,841.5,478.6,839.4,472.1,839.4z"/>
</g>
</svg>
