<?xml version="1.0" encoding="utf-8"?>
<!-- Generator: Adobe Illustrator 22.0.1, SVG Export Plug-In . SVG Version: 6.00 Build 0)  -->
<svg version="1.1" id="Ebene_1" xmlns="http://www.w3.org/2000/svg" xmlns:xlink="http://www.w3.org/1999/xlink" x="0px" y="0px"
	 viewBox="0 0 114.9 121.2" style="enable-background:new 0 0 114.9 121.2;" xml:space="preserve">
<style type="text/css">
	.st0{fill:#FFFFFF;}
	.st1{fill:#E6007D;stroke:#E6007D;stroke-width:1.03;stroke-linecap:round;stroke-linejoin:round;}
</style>
<title>Element 50</title>
<rect x="105" y="102.9" class="st0" width="9.9" height="17.8"/>
<rect x="78.9" y="102.9" class="st0" width="9.9" height="17.8"/>
<rect x="26.6" y="102.9" class="st1" width="9.9" height="17.8"/>
<rect x="0.5" y="102.9" class="st0" width="9.9" height="17.8"/>
<rect x="105" y="77.3" class="st0" width="9.9" height="17.8"/>
<rect x="0.5" y="77.3" class="st1" width="9.9" height="17.8"/>
<rect x="105" y="0.5" class="st0" width="9.9" height="17.8"/>
<rect x="52.8" y="0.5" class="st0" width="9.9" height="17.8"/>
<rect x="52.8" y="102.9" class="st0" width="9.9" height="17.8"/>
<rect x="78.9" y="77.3" class="st0" width="9.9" height="17.8"/>
<rect x="52.8" y="77.3" class="st1" width="9.9" height="17.8"/>
<rect x="26.6" y="77.3" class="st0" width="9.9" height="17.8"/>
<rect x="105" y="51.7" class="st0" width="9.9" height="17.8"/>
<rect x="78.9" y="51.7" class="st1" width="9.9" height="17.8"/>
<rect x="52.8" y="51.7" class="st0" width="9.9" height="17.8"/>
<rect x="26.6" y="51.7" class="st0" width="9.9" height="17.8"/>
<rect x="0.5" y="51.7" class="st0" width="9.9" height="17.8"/>
<rect x="105" y="26.1" class="st1" width="9.9" height="17.8"/>
<rect x="78.9" y="26.1" class="st0" width="9.9" height="17.8"/>
<rect x="52.8" y="26.1" class="st0" width="9.9" height="17.8"/>
<rect x="26.6" y="26.1" class="st0" width="9.9" height="17.8"/>
<rect x="0.5" y="26.1" class="st0" width="9.9" height="17.8"/>
<rect x="78.9" y="0.5" class="st0" width="9.9" height="17.8"/>
<rect x="26.6" y="0.5" class="st0" width="9.9" height="17.8"/>
<rect x="0.5" y="0.5" class="st0" width="9.9" height="17.8"/>
</svg>
