<?xml version="1.0" encoding="utf-8"?>
<!-- Generator: Adobe Illustrator 18.0.0, SVG Export Plug-In . SVG Version: 6.00 Build 0)  -->
<!DOCTYPE svg PUBLIC "-//W3C//DTD SVG 1.1//EN" "http://www.w3.org/Graphics/SVG/1.1/DTD/svg11.dtd">
<svg version="1.1" id="Ebene_1" xmlns="http://www.w3.org/2000/svg" xmlns:xlink="http://www.w3.org/1999/xlink" x="0px" y="0px"
	 viewBox="0 0 841.9 595.3" enable-background="new 0 0 841.9 595.3" xml:space="preserve">
<g>
	<g>
		<g>
			<path id="Controller_2_" fill="#FFFFFF" d="M609.1,365.8h-90.5c-6.5,0-11.8-5.3-11.8-11.8v-90.5c0-6.5,5.3-11.8,11.8-11.8h90.5
				c6.5,0,11.8,5.3,11.8,11.8V354C620.9,360.5,615.6,365.8,609.1,365.8z"/>
			<g>
				<circle fill="#42C9C9" cx="533.3" cy="304" r="3.2"/>
				<circle fill="#42C9C9" cx="594.3" cy="304" r="3.2"/>
				<path fill="#42C9C9" d="M580,323.8c-4.9,2.7-10.5,4.1-16.2,4.1s-11.2-1.4-16.2-4.1c-1.3-0.7-2.9-0.2-3.6,1.1
					c-0.7,1.3-0.2,2.9,1.1,3.6c5.7,3.1,12.2,4.8,18.7,4.8c2.1,0,4.3-0.2,6.4-0.5l1.2,3.7c0.7,2.1,3,3.3,5.1,2.6l0.8-0.3
					c2.1-0.7,3.3-3,2.6-5.1l-1.1-3.3c1.3-0.5,2.5-1.1,3.8-1.8c1.3-0.7,1.8-2.3,1.1-3.6C582.9,323.6,581.2,323.1,580,323.8z"/>
			</g>
		</g>
		<g>
			<path fill="#FFFFFF" d="M647.5,364.4c-0.2,0-0.3,0-0.5,0c-3.6-0.1-10.2-1.9-14.5-12.3c-1.9-4.6-2.1-9.6-0.7-15.1
				c-6.9-0.9-12.6-0.9-12.7-0.9l-0.1-4.3c0.5,0,6.6-0.1,14.1,1c2.2-5.6,5.9-11.5,11.1-17.9c8.7-10.5,18.3-18.1,18.7-18.4l2.6,3.4
				c-0.3,0.2-21.1,16.7-28.2,33.7c8.1,1.6,16.8,4.5,21.4,10.2c3,3.7,3.5,8.3,1.4,12.6C657.9,361.2,652.8,364.4,647.5,364.4z
				 M636.1,337.6c-1.2,4.4-1.3,8.8,0.4,12.8c2.5,6.1,6.3,9.5,10.7,9.7c3.8,0.1,7.6-2.2,9.3-5.6c0.8-1.6,1.7-4.8-0.9-8
				C651.6,341.6,643.6,339,636.1,337.6z"/>
			<polygon fill="#FFFFFF" points="686.6,278.9 686.1,278.4 684.5,279.2 684.1,280.5 682.8,280.8 681.4,283.7 680.6,284.5 
				680.6,284.4 679.5,283.2 680.3,282.3 681.5,282 682.3,280.3 683.6,280 684,278.8 685.7,277.9 685.6,277.9 685.1,277.3 
				679.8,280.4 677.9,282.2 677.1,281.9 667.3,288.2 663.7,291.6 662.7,296.2 660.4,298.4 663.6,301.9 665.7,299.9 670.8,299.2 
				674.4,295.8 681.3,286.4 681.1,285.8 683.1,284 			"/>
		</g>
	</g>
</g>
</svg>
